<svg id="visual" viewBox="0 0 900 600" width="900" height="600" xmlns="http://www.w3.org/2000/svg" xmlns:xlink="http://www.w3.org/1999/xlink" version="1.1"><g stroke-width="1" stroke-linejoin="bevel"><path d="M512 331L425 369L477 380Z" fill="#00101c" stroke="#00101c"></path><path d="M512 331L371 322L425 369Z" fill="#00101c" stroke="#00101c"></path><path d="M512 331L424 212L371 322Z" fill="#07202d" stroke="#07202d"></path><path d="M512 331L487 207L424 212Z" fill="#009c96" stroke="#009c96"></path><path d="M512 331L571 220L487 207Z" fill="#00b09a" stroke="#00b09a"></path><path d="M300 399L391 472L425 369Z" fill="#02c39a" stroke="#02c39a"></path><path d="M425 369L391 472L477 380Z" fill="#02c39a" stroke="#02c39a"></path><path d="M477 380L615 370L512 331Z" fill="#092f3f" stroke="#092f3f"></path><path d="M512 331L623 339L571 220Z" fill="#092f3f" stroke="#092f3f"></path><path d="M520 484L615 370L477 380Z" fill="#07202d" stroke="#07202d"></path><path d="M615 370L623 339L512 331Z" fill="#07202d" stroke="#07202d"></path><path d="M391 472L520 484L477 380Z" fill="#045162" stroke="#045162"></path><path d="M424 212L326 236L371 322Z" fill="#092f3f" stroke="#092f3f"></path><path d="M371 322L300 399L425 369Z" fill="#07202d" stroke="#07202d"></path><path d="M269 280L300 399L371 322Z" fill="#00101c" stroke="#00101c"></path><path d="M326 236L269 280L371 322Z" fill="#009c96" stroke="#009c96"></path><path d="M300 399L300 471L391 472Z" fill="#092f3f" stroke="#092f3f"></path><path d="M476 600L620 529L520 484Z" fill="#00b09a" stroke="#00b09a"></path><path d="M191 479L300 471L300 399Z" fill="#092f3f" stroke="#092f3f"></path><path d="M269 280L228 331L300 399Z" fill="#084051" stroke="#084051"></path><path d="M730 422L698 314L615 370Z" fill="#009c96" stroke="#009c96"></path><path d="M615 370L698 314L623 339Z" fill="#02c39a" stroke="#02c39a"></path><path d="M623 339L698 314L571 220Z" fill="#084051" stroke="#084051"></path><path d="M424 73L329 129L424 212Z" fill="#007682" stroke="#007682"></path><path d="M424 212L329 129L326 236Z" fill="#045162" stroke="#045162"></path><path d="M326 236L216 172L269 280Z" fill="#02c39a" stroke="#02c39a"></path><path d="M125 270L173 371L228 331Z" fill="#00b09a" stroke="#00b09a"></path><path d="M470 82L424 212L487 207Z" fill="#009c96" stroke="#009c96"></path><path d="M592 112L487 207L571 220Z" fill="#007682" stroke="#007682"></path><path d="M592 112L470 82L487 207Z" fill="#00101c" stroke="#00101c"></path><path d="M476 600L520 484L391 472Z" fill="#07202d" stroke="#07202d"></path><path d="M520 484L620 529L615 370Z" fill="#009c96" stroke="#009c96"></path><path d="M719 166L592 112L571 220Z" fill="#045162" stroke="#045162"></path><path d="M470 82L424 73L424 212Z" fill="#00101c" stroke="#00101c"></path><path d="M386 600L476 600L391 472Z" fill="#00898e" stroke="#00898e"></path><path d="M620 529L695 466L615 370Z" fill="#045162" stroke="#045162"></path><path d="M300 471L386 600L391 472Z" fill="#02c39a" stroke="#02c39a"></path><path d="M695 466L730 422L615 370Z" fill="#045162" stroke="#045162"></path><path d="M125 270L228 331L269 280Z" fill="#02c39a" stroke="#02c39a"></path><path d="M228 331L173 371L300 399Z" fill="#007682" stroke="#007682"></path><path d="M300 471L261 600L386 600Z" fill="#092f3f" stroke="#092f3f"></path><path d="M199 82L216 172L329 129Z" fill="#02c39a" stroke="#02c39a"></path><path d="M329 129L216 172L326 236Z" fill="#00b09a" stroke="#00b09a"></path><path d="M698 314L719 166L571 220Z" fill="#00101c" stroke="#00101c"></path><path d="M779 205L719 166L698 314Z" fill="#009c96" stroke="#009c96"></path><path d="M173 371L191 479L300 399Z" fill="#006373" stroke="#006373"></path><path d="M730 422L772 290L698 314Z" fill="#045162" stroke="#045162"></path><path d="M807 522L837 419L730 422Z" fill="#02c39a" stroke="#02c39a"></path><path d="M620 529L707 600L695 466Z" fill="#006373" stroke="#006373"></path><path d="M476 600L633 600L620 529Z" fill="#00898e" stroke="#00898e"></path><path d="M806 66L693 101L719 166Z" fill="#00b09a" stroke="#00b09a"></path><path d="M719 166L693 101L592 112Z" fill="#007682" stroke="#007682"></path><path d="M523 0L426 0L470 82Z" fill="#00101c" stroke="#00101c"></path><path d="M470 82L426 0L424 73Z" fill="#084051" stroke="#084051"></path><path d="M523 0L470 82L592 112Z" fill="#02c39a" stroke="#02c39a"></path><path d="M424 73L312 0L329 129Z" fill="#00b09a" stroke="#00b09a"></path><path d="M191 479L261 600L300 471Z" fill="#00b09a" stroke="#00b09a"></path><path d="M624 0L523 0L592 112Z" fill="#006373" stroke="#006373"></path><path d="M216 172L125 270L269 280Z" fill="#009c96" stroke="#009c96"></path><path d="M173 371L123 475L191 479Z" fill="#007682" stroke="#007682"></path><path d="M772 290L779 205L698 314Z" fill="#00b09a" stroke="#00b09a"></path><path d="M121 69L117 238L216 172Z" fill="#006373" stroke="#006373"></path><path d="M216 172L117 238L125 270Z" fill="#00898e" stroke="#00898e"></path><path d="M312 0L199 82L329 129Z" fill="#045162" stroke="#045162"></path><path d="M426 0L312 0L424 73Z" fill="#07202d" stroke="#07202d"></path><path d="M633 600L707 600L620 529Z" fill="#084051" stroke="#084051"></path><path d="M730 422L837 419L772 290Z" fill="#02c39a" stroke="#02c39a"></path><path d="M61 371L123 475L173 371Z" fill="#00b09a" stroke="#00b09a"></path><path d="M191 479L186 600L261 600Z" fill="#00898e" stroke="#00898e"></path><path d="M61 371L173 371L125 270Z" fill="#009c96" stroke="#009c96"></path><path d="M669 0L624 0L693 101Z" fill="#02c39a" stroke="#02c39a"></path><path d="M693 101L624 0L592 112Z" fill="#007682" stroke="#007682"></path><path d="M136 600L186 600L191 479Z" fill="#092f3f" stroke="#092f3f"></path><path d="M807 522L730 422L695 466Z" fill="#00b09a" stroke="#00b09a"></path><path d="M772 290L900 279L779 205Z" fill="#092f3f" stroke="#092f3f"></path><path d="M763 0L669 0L693 101Z" fill="#00b09a" stroke="#00b09a"></path><path d="M707 600L807 522L695 466Z" fill="#006373" stroke="#006373"></path><path d="M0 273L61 371L125 270Z" fill="#00101c" stroke="#00101c"></path><path d="M123 475L136 600L191 479Z" fill="#045162" stroke="#045162"></path><path d="M707 600L773 600L807 522Z" fill="#00898e" stroke="#00898e"></path><path d="M0 498L136 600L123 475Z" fill="#009c96" stroke="#009c96"></path><path d="M199 82L121 69L216 172Z" fill="#00898e" stroke="#00898e"></path><path d="M0 273L0 383L61 371Z" fill="#084051" stroke="#084051"></path><path d="M170 0L121 69L199 82Z" fill="#006373" stroke="#006373"></path><path d="M900 164L806 66L779 205Z" fill="#009c96" stroke="#009c96"></path><path d="M779 205L806 66L719 166Z" fill="#007682" stroke="#007682"></path><path d="M312 0L170 0L199 82Z" fill="#007682" stroke="#007682"></path><path d="M900 390L772 290L837 419Z" fill="#07202d" stroke="#07202d"></path><path d="M900 390L900 279L772 290Z" fill="#00b09a" stroke="#00b09a"></path><path d="M900 508L900 390L837 419Z" fill="#045162" stroke="#045162"></path><path d="M900 508L837 419L807 522Z" fill="#00898e" stroke="#00898e"></path><path d="M806 66L763 0L693 101Z" fill="#009c96" stroke="#009c96"></path><path d="M0 273L125 270L117 238Z" fill="#00898e" stroke="#00898e"></path><path d="M61 371L0 498L123 475Z" fill="#084051" stroke="#084051"></path><path d="M0 221L0 273L117 238Z" fill="#00898e" stroke="#00898e"></path><path d="M900 279L900 164L779 205Z" fill="#00101c" stroke="#00101c"></path><path d="M806 66L900 0L763 0Z" fill="#006373" stroke="#006373"></path><path d="M0 119L117 238L121 69Z" fill="#02c39a" stroke="#02c39a"></path><path d="M0 119L0 221L117 238Z" fill="#084051" stroke="#084051"></path><path d="M900 600L900 508L807 522Z" fill="#007682" stroke="#007682"></path><path d="M0 383L0 498L61 371Z" fill="#084051" stroke="#084051"></path><path d="M900 164L900 82L806 66Z" fill="#00101c" stroke="#00101c"></path><path d="M68 0L0 119L121 69Z" fill="#009c96" stroke="#009c96"></path><path d="M170 0L68 0L121 69Z" fill="#07202d" stroke="#07202d"></path><path d="M773 600L900 600L807 522Z" fill="#092f3f" stroke="#092f3f"></path><path d="M0 498L0 600L136 600Z" fill="#07202d" stroke="#07202d"></path><path d="M900 82L900 0L806 66Z" fill="#02c39a" stroke="#02c39a"></path><path d="M68 0L0 0L0 119Z" fill="#007682" stroke="#007682"></path></g></svg>