<svg id="visual" viewBox="0 0 900 600" width="900" height="600" xmlns="http://www.w3.org/2000/svg" xmlns:xlink="http://www.w3.org/1999/xlink" version="1.1"><rect x="0" y="0" width="900" height="600" fill="#13121a"></rect><path d="M0 414L21.5 403.5C43 393 86 372 128.8 367.5C171.7 363 214.3 375 257.2 384C300 393 343 399 385.8 406.2C428.7 413.3 471.3 421.7 514.2 413.8C557 406 600 382 642.8 373.5C685.7 365 728.3 372 771.2 387C814 402 857 425 878.5 436.5L900 448L900 601L878.5 601C857 601 814 601 771.2 601C728.3 601 685.7 601 642.8 601C600 601 557 601 514.2 601C471.3 601 428.7 601 385.8 601C343 601 300 601 257.2 601C214.3 601 171.7 601 128.8 601C86 601 43 601 21.5 601L0 601Z" fill="#02c39a"></path><path d="M0 412L21.5 414.2C43 416.3 86 420.7 128.8 422.3C171.7 424 214.3 423 257.2 423.8C300 424.7 343 427.3 385.8 436.5C428.7 445.7 471.3 461.3 514.2 460C557 458.7 600 440.3 642.8 430.8C685.7 421.3 728.3 420.7 771.2 416.2C814 411.7 857 403.3 878.5 399.2L900 395L900 601L878.5 601C857 601 814 601 771.2 601C728.3 601 685.7 601 642.8 601C600 601 557 601 514.2 601C471.3 601 428.7 601 385.8 601C343 601 300 601 257.2 601C214.3 601 171.7 601 128.8 601C86 601 43 601 21.5 601L0 601Z" fill="#00bcce"></path><path d="M0 503L21.5 493.8C43 484.7 86 466.3 128.8 457.3C171.7 448.3 214.3 448.7 257.2 454.8C300 461 343 473 385.8 471.3C428.7 469.7 471.3 454.3 514.2 453.2C557 452 600 465 642.8 476.5C685.7 488 728.3 498 771.2 498.5C814 499 857 490 878.5 485.5L900 481L900 601L878.5 601C857 601 814 601 771.2 601C728.3 601 685.7 601 642.8 601C600 601 557 601 514.2 601C471.3 601 428.7 601 385.8 601C343 601 300 601 257.2 601C214.3 601 171.7 601 128.8 601C86 601 43 601 21.5 601L0 601Z" fill="#00aee7"></path><path d="M0 541L21.5 538C43 535 86 529 128.8 524.7C171.7 520.3 214.3 517.7 257.2 517C300 516.3 343 517.7 385.8 522C428.7 526.3 471.3 533.7 514.2 534.2C557 534.7 600 528.3 642.8 525.5C685.7 522.7 728.3 523.3 771.2 522.2C814 521 857 518 878.5 516.5L900 515L900 601L878.5 601C857 601 814 601 771.2 601C728.3 601 685.7 601 642.8 601C600 601 557 601 514.2 601C471.3 601 428.7 601 385.8 601C343 601 300 601 257.2 601C214.3 601 171.7 601 128.8 601C86 601 43 601 21.5 601L0 601Z" fill="#0099f3"></path><path d="M0 550L21.5 552.2C43 554.3 86 558.7 128.8 561.3C171.7 564 214.3 565 257.2 565.2C300 565.3 343 564.7 385.8 563.3C428.7 562 471.3 560 514.2 558C557 556 600 554 642.8 550.5C685.7 547 728.3 542 771.2 537.8C814 533.7 857 530.3 878.5 528.7L900 527L900 601L878.5 601C857 601 814 601 771.2 601C728.3 601 685.7 601 642.8 601C600 601 557 601 514.2 601C471.3 601 428.7 601 385.8 601C343 601 300 601 257.2 601C214.3 601 171.7 601 128.8 601C86 601 43 601 21.5 601L0 601Z" fill="#577ef2"></path></svg>